# xmcd CD database file
#
# Track frame offsets:
#	150
#	23410
#	43830
#	65372
#	98037
#	104920
#	123007
#	154307
#	175257
#
# Disc length: 2636 seconds
#
# Revision: 1
# Processed by: cddbd v1.5PL3 Copyright (c) Steve Scherf et al.
# Submitted via: CDex 1.51
#
DISCID=700a4a09
DTITLE=NAKAJIMA Miyuki - 36.5C
DYEAR=1900
DGENRE=
TTITLE0=Atai no Natuyasumi
TTITLE1=Saiaku
TTITLE2=F.O.
TTITLE3=Doku Onna
TTITLE4=Seaside Corpor-ouse
TTITLE5=Yamaneko
TTITLE6=HALF
TTITLE7=Mikaeri Bijin
TTITLE8=Hakutyou no Uta ga kikoeru
EXTD=
EXTT0=
EXTT1=
EXTT2=
EXTT3=
EXTT4=
EXTT5=
EXTT6=
EXTT7=
EXTT8=
PLAYORDER=
